<svg xmlns="http://www.w3.org/2000/svg" xmlns:xlink="http://www.w3.org/1999/xlink" contentStyleType="text/css" data-diagram-type="DESCRIPTION" height="986px" preserveAspectRatio="none" style="width:556px;height:986px;background:#FFFFFF;" version="1.1" viewBox="0 0 556 986" width="556px" zoomAndPan="magnify"><title>Real-Time Collaboration Architecture</title><defs/><g><g class="title" data-source-line="10"><text fill="#000000" font-family="Arial" font-size="22" font-weight="bold" lengthAdjust="spacing" textLength="388.7383" x="79.1309" y="43.6357">Real-Time Collaboration Architecture</text></g><!--cluster frontend--><g class="cluster" data-entity="frontend" data-source-line="12" data-uid="ent0002" id="cluster_frontend"><path d="M70,73.2979 L135.9902,73.2979 A6,6 0 0 1 139.9902,77.2979 L146.9902,109.0967 L536,109.0967 A4,4 0 0 1 540,113.0967 L540,452.0979 A4,4 0 0 1 536,456.0979 L70,456.0979 A4,4 0 0 1 66,452.0979 L66,77.2979 A4,4 0 0 1 70,73.2979" fill="#E3F2FD" style="stroke:#000000;stroke-width:1;"/><line style="stroke:#000000;stroke-width:1;" x1="66" x2="146.9902" y1="109.0967" y2="109.0967"/><text fill="#000000" font-family="Arial" font-size="12" font-weight="bold" lengthAdjust="spacing" textLength="51.9902" x="78" y="94.5537">Frontend</text></g><!--cluster backend--><g class="cluster" data-entity="backend" data-source-line="24" data-uid="ent0009" id="cluster_backend"><path d="M15,480.0979 L79.0215,480.0979 A6,6 0 0 1 83.0215,484.0979 L90.0215,515.8967 L545,515.8967 A4,4 0 0 1 549,519.8967 L549,975.8879 A4,4 0 0 1 545,979.8879 L15,979.8879 A4,4 0 0 1 11,975.8879 L11,484.0979 A4,4 0 0 1 15,480.0979" fill="#FFF3E0" style="stroke:#000000;stroke-width:1;"/><line style="stroke:#000000;stroke-width:1;" x1="11" x2="90.0215" y1="515.8967" y2="515.8967"/><text fill="#000000" font-family="Arial" font-size="12" font-weight="bold" lengthAdjust="spacing" textLength="50.0215" x="23" y="501.3537">Backend</text></g><!--cluster conn_mgr--><g class="cluster" data-entity="conn_mgr" data-source-line="27" data-uid="ent0011" id="cluster_conn_mgr"><rect fill="#FFCC80" height="267.19" rx="4" ry="4" style="stroke:#000000;stroke-width:1;" width="366" x="43" y="601.8979"/><text fill="#000000" font-family="Arial" font-size="12" font-weight="bold" lengthAdjust="spacing" textLength="118.6758" x="166.6621" y="623.1537">Connection Manager</text></g><!--entity auth_ctx--><g class="entity" data-entity="auth_ctx" data-source-line="14" data-uid="ent0003" id="entity_auth_ctx"><rect fill="#BBDEFB" height="63.5977" rx="4" ry="4" style="stroke:#000000;stroke-width:1;" width="77.3555" x="100.32" y="129.2979"/><text fill="#000000" font-family="Arial" font-size="12" lengthAdjust="spacing" textLength="24.6855" x="118.32" y="158.5537">Auth</text><text fill="#000000" font-family="Arial" font-size="12" lengthAdjust="spacing" textLength="41.3555" x="118.32" y="172.3525">Context</text></g><!--entity ws_ctx--><g class="entity" data-entity="ws_ctx" data-source-line="15" data-uid="ent0004" id="entity_ws_ctx"><rect fill="#BBDEFB" height="63.5977" rx="4" ry="4" style="stroke:#000000;stroke-width:1;" width="97.3594" x="90.32" y="252.8979"/><text fill="#000000" font-family="Arial" font-size="12" lengthAdjust="spacing" textLength="61.3594" x="108.32" y="282.1537">WebSocket</text><text fill="#000000" font-family="Arial" font-size="12" lengthAdjust="spacing" textLength="41.3555" x="108.32" y="295.9525">Context</text></g><!--entity presence_ctx--><g class="entity" data-entity="presence_ctx" data-source-line="16" data-uid="ent0005" id="entity_presence_ctx"><rect fill="#BBDEFB" height="63.5977" rx="4" ry="4" style="stroke:#000000;stroke-width:1;" width="86.6953" x="222.65" y="252.8979"/><text fill="#000000" font-family="Arial" font-size="12" lengthAdjust="spacing" textLength="50.6953" x="240.65" y="282.1537">Presence</text><text fill="#000000" font-family="Arial" font-size="12" lengthAdjust="spacing" textLength="41.3555" x="240.65" y="295.9525">Context</text></g><!--entity notif_ctx--><g class="entity" data-entity="notif_ctx" data-source-line="17" data-uid="ent0006" id="entity_notif_ctx"><rect fill="#BBDEFB" height="63.5977" rx="4" ry="4" style="stroke:#000000;stroke-width:1;" width="95.3613" x="344.32" y="252.8979"/><text fill="#000000" font-family="Arial" font-size="12" lengthAdjust="spacing" textLength="59.3613" x="362.32" y="282.1537">Notification</text><text fill="#000000" font-family="Arial" font-size="12" lengthAdjust="spacing" textLength="41.3555" x="362.32" y="295.9525">Context</text></g><!--entity ws_conn--><g class="entity" data-entity="ws_conn" data-source-line="20" data-uid="ent0007" id="entity_ws_conn"><rect fill="#90CAF9" height="63.5977" rx="4" ry="4" style="stroke:#000000;stroke-width:1;" width="97.3594" x="247.32" y="376.4979"/><text fill="#000000" font-family="Arial" font-size="12" lengthAdjust="spacing" textLength="61.3594" x="265.32" y="405.7537">WebSocket</text><text fill="#000000" font-family="Arial" font-size="12" lengthAdjust="spacing" textLength="60.709" x="265.32" y="419.5525">Connection</text></g><!--entity http_client--><g class="entity" data-entity="http_client" data-source-line="21" data-uid="ent0008" id="entity_http_client"><rect fill="#90CAF9" height="63.5977" rx="4" ry="4" style="stroke:#000000;stroke-width:1;" width="67.3301" x="456.33" y="129.2979"/><text fill="#000000" font-family="Arial" font-size="12" lengthAdjust="spacing" textLength="31.3301" x="474.33" y="158.5537">HTTP</text><text fill="#000000" font-family="Arial" font-size="12" lengthAdjust="spacing" textLength="30.6797" x="474.33" y="172.3525">Client</text></g><!--entity ws_endpoint--><g class="entity" data-entity="ws_endpoint" data-source-line="25" data-uid="ent0010" id="entity_ws_endpoint"><rect fill="#FFE0B2" height="49.7988" rx="4" ry="4" style="stroke:#000000;stroke-width:1;" width="103.377" x="275.31" y="528.0979"/><text fill="#000000" font-family="Arial" font-size="12" lengthAdjust="spacing" textLength="67.377" x="293.31" y="557.3537">/ws endpoint</text></g><!--entity rest--><g class="entity" data-entity="rest" data-source-line="33" data-uid="ent0015" id="entity_rest"><rect fill="#FFE0B2" height="49.7988" rx="4" ry="4" style="stroke:#000000;stroke-width:1;" width="96.6797" x="436.66" y="664.7979"/><text fill="#000000" font-family="Arial" font-size="12" lengthAdjust="spacing" textLength="60.6797" x="454.66" y="694.0537">REST APIs</text></g><!--entity broadcast--><g class="entity" data-entity="broadcast" data-source-line="34" data-uid="ent0016" id="entity_broadcast"><rect fill="#FFE0B2" height="63.5977" rx="4" ry="4" style="stroke:#000000;stroke-width:1;" width="90.0293" x="434.99" y="781.4879"/><text fill="#000000" font-family="Arial" font-size="12" lengthAdjust="spacing" textLength="54.0293" x="452.99" y="810.7437">Broadcast</text><text fill="#000000" font-family="Arial" font-size="12" lengthAdjust="spacing" textLength="36.6855" x="452.99" y="824.5425">Events</text></g><!--entity db--><g class="entity" data-entity="db" data-source-line="35" data-uid="ent0017" id="entity_db"><path d="M429.32,915.0879 C429.32,905.0879 480.0036,905.0879 480.0036,905.0879 C480.0036,905.0879 530.6872,905.0879 530.6872,915.0879 L530.6872,953.8867 C530.6872,963.8867 480.0036,963.8867 480.0036,963.8867 C480.0036,963.8867 429.32,963.8867 429.32,953.8867 L429.32,915.0879" fill="#FFE0B2" style="stroke:#000000;stroke-width:1;"/><path d="M429.32,915.0879 C429.32,925.0879 480.0036,925.0879 480.0036,925.0879 C480.0036,925.0879 530.6872,925.0879 530.6872,915.0879" fill="none" style="stroke:#000000;stroke-width:1;"/><text fill="#000000" font-family="Arial" font-size="12" lengthAdjust="spacing" textLength="65.3672" x="447.32" y="948.3437">PostgreSQL</text></g><!--entity user_track--><g class="entity" data-entity="user_track" data-source-line="28" data-uid="ent0012" id="entity_user_track"><rect fill="#FFFFFF" height="63.5977" rx="4" ry="4" style="stroke:#000000;stroke-width:1;" width="128.7129" x="66.64" y="657.8979"/><text fill="#000000" font-family="Arial" font-size="12" lengthAdjust="spacing" textLength="92.7129" x="84.64" y="687.1537">User connections</text><text fill="#000000" font-family="Arial" font-size="12" lengthAdjust="spacing" textLength="42.0176" x="84.64" y="700.9525">tracking</text></g><!--entity wb_track--><g class="entity" data-entity="wb_track" data-source-line="29" data-uid="ent0013" id="entity_wb_track"><rect fill="#FFFFFF" height="63.5977" rx="4" ry="4" style="stroke:#000000;stroke-width:1;" width="135.375" x="230.31" y="657.8979"/><text fill="#000000" font-family="Arial" font-size="12" lengthAdjust="spacing" textLength="99.375" x="248.31" y="687.1537">Whiteboard viewer</text><text fill="#000000" font-family="Arial" font-size="12" lengthAdjust="spacing" textLength="42.0176" x="248.31" y="700.9525">tracking</text></g><!--entity pubsub--><g class="entity" data-entity="pubsub" data-source-line="30" data-uid="ent0014" id="entity_pubsub"><rect fill="#FFFFFF" height="63.5977" rx="4" ry="4" style="stroke:#000000;stroke-width:1;" width="93.3398" x="84.33" y="781.4879"/><text fill="#000000" font-family="Arial" font-size="12" lengthAdjust="spacing" textLength="57.3398" x="102.33" y="810.7437">In-memory</text><text fill="#000000" font-family="Arial" font-size="12" lengthAdjust="spacing" textLength="42.7031" x="102.33" y="824.5425">pub/sub</text></g><!--link auth_ctx to ws_ctx--><!--link auth_ctx to ws_ctx--><g class="link" data-entity-1="auth_ctx" data-entity-2="ws_ctx" data-source-line="44" data-uid="lnk21" id="link_auth_ctx_ws_ctx"><path d="M126.11,193.2479 C126.11,211.5579 126.11,228.4279 126.11,246.7079" fill="none" id="auth_ctx-to-ws_ctx" style="stroke:#000000;stroke-width:1;stroke-dasharray:7,7;"/><polygon fill="#000000" points="126.11,252.7079,130.11,243.7079,126.11,247.7079,122.11,243.7079,126.11,252.7079" style="stroke:#000000;stroke-width:1;"/><text fill="#000000" font-family="Arial" font-size="12" lengthAdjust="spacing" textLength="45.3574" x="68.7838" y="198.2337">provides</text><text fill="#000000" font-family="Arial" font-size="12" lengthAdjust="spacing" textLength="52.7051" x="65.11" y="212.0325">auth state</text></g><!--link ws_ctx to presence_ctx--><!--link presence_ctx to notif_ctx--><!--link ws_ctx to ws_conn--><g class="link" data-entity-1="ws_ctx" data-entity-2="ws_conn" data-source-line="45" data-uid="lnk22" id="link_ws_ctx_ws_conn"><path d="M139,316.7479 C139,353.2479 139,407.8879 139,407.8879 C139,407.8879 195.1,407.8879 241.18,407.8879" fill="none" id="ws_ctx-to-ws_conn" style="stroke:#000000;stroke-width:1;"/><polygon fill="#000000" points="247.18,407.8879,238.18,403.8879,242.18,407.8879,238.18,411.8879,247.18,407.8879" style="stroke:#000000;stroke-width:1;"/></g><!--link presence_ctx to ws_conn--><g class="link" data-entity-1="presence_ctx" data-entity-2="ws_conn" data-source-line="46" data-uid="lnk23" id="link_presence_ctx_ws_conn"><path d="M278.33,316.8479 C278.33,335.1579 278.33,352.0179 278.33,370.3079" fill="none" id="presence_ctx-to-ws_conn" style="stroke:#000000;stroke-width:1;"/><polygon fill="#000000" points="278.33,376.3079,282.33,367.3079,278.33,371.3079,274.33,367.3079,278.33,376.3079" style="stroke:#000000;stroke-width:1;"/></g><!--link notif_ctx to ws_conn--><g class="link" data-entity-1="notif_ctx" data-entity-2="ws_conn" data-source-line="47" data-uid="lnk24" id="link_notif_ctx_ws_conn"><path d="M361.68,316.7479 C361.68,353.2479 361.68,407.8879 361.68,407.8879 C361.68,407.8879 360.61,407.8879 351.11,407.8879" fill="none" id="notif_ctx-to-ws_conn" style="stroke:#000000;stroke-width:1;"/><polygon fill="#000000" points="345.11,407.8879,354.11,411.8879,350.11,407.8879,354.11,403.8879,345.11,407.8879" style="stroke:#000000;stroke-width:1;"/></g><!--link http_client to rest--><g class="link" data-entity-1="http_client" data-entity-2="rest" data-source-line="50" data-uid="lnk25" id="link_http_client_rest"><path d="M490,193.3679 C490,290.3179 490,571.6379 490,658.5179" fill="none" id="http_client-to-rest" style="stroke:#000000;stroke-width:1;"/><polygon fill="#000000" points="490,664.5179,494,655.5179,490,659.5179,486,655.5179,490,664.5179" style="stroke:#000000;stroke-width:1;"/><text fill="#000000" font-family="Arial" font-size="12" lengthAdjust="spacing" textLength="31.3301" x="450" y="418.2037">HTTP</text></g><!--link ws_conn to ws_endpoint--><g class="link" data-entity-1="ws_conn" data-entity-2="ws_endpoint" data-source-line="53" data-uid="lnk26" id="link_ws_conn_ws_endpoint"><path d="M310,440.4079 C310,466.7179 310,497.4379 310,521.6979" fill="none" id="ws_conn-to-ws_endpoint" style="stroke:#000000;stroke-width:1;"/><polygon fill="#000000" points="310,527.6979,314,518.6979,310,522.6979,306,518.6979,310,527.6979" style="stroke:#000000;stroke-width:1;"/><text fill="#000000" font-family="Arial" font-size="12" lengthAdjust="spacing" textLength="24.668" x="277" y="473.3137">ws://</text></g><!--link ws_endpoint to conn_mgr--><g class="link" data-entity-1="ws_endpoint" data-entity-2="conn_mgr" data-source-line="56" data-uid="lnk27" id="link_ws_endpoint_conn_mgr"><path d="M372.19,578.0979 C372.19,583.0379 372.19,588.4896 372.19,594.2479 C372.19,595.6875 372.19,597.1462 372.19,598.6209 C372.19,599.3583 372.19,600.0996 372.19,600.8445 C372.19,601.0308 372.19,595.2172 372.19,595.4039" fill="none" id="ws_endpoint-to-conn_mgr" style="stroke:#000000;stroke-width:1;"/><polygon fill="#000000" points="372.19,601.4039,376.19,592.4039,372.19,596.4039,368.19,592.4039,372.19,601.4039" style="stroke:#000000;stroke-width:1;"/></g><!--link rest to broadcast--><g class="link" data-entity-1="rest" data-entity-2="broadcast" data-source-line="57" data-uid="lnk28" id="link_rest_broadcast"><path d="M480.84,714.9979 C480.84,734.2079 480.84,754.7479 480.84,775.4079" fill="none" id="rest-to-broadcast" style="stroke:#000000;stroke-width:1;"/><polygon fill="#000000" points="480.84,781.4079,484.84,772.4079,480.84,776.4079,476.84,772.4079,480.84,781.4079" style="stroke:#000000;stroke-width:1;"/></g><!--link conn_mgr to broadcast--><g class="link" data-entity-1="conn_mgr" data-entity-2="broadcast" data-source-line="58" data-uid="lnk29" id="link_conn_mgr_broadcast"><path d="M409.0857,812.8879 C409.1297,812.8879 409.1739,812.8879 409.2183,812.8879 C409.307,812.8879 409.3963,812.8879 409.4862,812.8879 C409.666,812.8879 409.8481,812.8879 410.0324,812.8879 C410.4011,812.8879 410.7788,812.8879 411.165,812.8879 C417.345,812.8879 419.72,812.8879 428.5,812.8879" fill="none" id="conn_mgr-to-broadcast" style="stroke:#000000;stroke-width:1;"/><polygon fill="#000000" points="434.5,812.8879,425.5,808.8879,429.5,812.8879,425.5,816.8879,434.5,812.8879" style="stroke:#000000;stroke-width:1;"/></g><!--link broadcast to db--><g class="link" data-entity-1="broadcast" data-entity-2="db" data-source-line="59" data-uid="lnk30" id="link_broadcast_db"><path d="M480,845.4479 C480,863.8279 480,880.7079 480,898.6779" fill="none" id="broadcast-to-db" style="stroke:#000000;stroke-width:1;"/><polygon fill="#000000" points="480,904.6779,484,895.6779,480,899.6779,476,895.6779,480,904.6779" style="stroke:#000000;stroke-width:1;"/></g><!--SRC=[XLJ1RXen4BtxAznmw8b0aql28H8GLetKHZHGzL0gPA-7nMAnLxOt98toxvqrkyPBKDcJFJDlvdbctdvoQzW2BN8c5R4RgGfcs9PobcuoeqibnZhNXdOI_qKHgTuMMe5oC_UQ0pMGEgQo7A8G0IjMvYxHoZqoB38qakMd_JFv5-YNgyXPC26aokXDPAi96GMcPS-b0lTQ0DN6hJKXJZgaz0Gixyub5iOtv8nhmvpK2ccaQ-cGRsc0a09VoZAW5ub17g341MMMhkeBxKokawladhuHYf_J6M33J7sjlj07UZ4itNgXnXNonVaq32tBrBtGpcXqFqb6fr2_WCzqkW7NXkxiEU3KW0MLGXjNrDPpw4Vjv4gclYNj3AhoV82_4_9VuWeRYga2TxJGpcr_F4nkZu5Vv_CfOdA9Dn-_TgvOfluUCE_HQ4PuQ2R3zsU_aTUJVZs9A7jlPoa655ggqCdcNg4c_T7LXxSS7a2_CuL5ZOTMhrXkCx__u_5D__JSVrhSY3Hai0lb3BB4xVL9IdGllIN8wDGQL3l9DJE2FalOWJdAikFdSpoexXQsshmkL57odYtvVYLAZiSMyECqdoQpEHrE7wo7u18TcdKKEJAQYPHPdFla6Irx16-iBPXWZd5cSOPJRLrcOFRZcmyNFCGXby-qKL_SHnBaq_szbaA0-cEwjJ18hO_O4wy-QUaWZWhhNPMj98iu_Im5M6eTSu0YfzgBFDsB8k9nUNdN27CGO0jL-VVWG4jqxneP7569FGUfjSn8hD88tKk4hl07xCUJiZot95QBX_bX3JoarKfyIAqS6hHA6cqs1OCq1dWRz7fLXWOLpo8EzTX66yINzwQm0oG8vyX-s1Bl49py0m00]--></g></svg>