<svg xmlns="http://www.w3.org/2000/svg" xmlns:xlink="http://www.w3.org/1999/xlink" contentStyleType="text/css" data-diagram-type="DESCRIPTION" height="778px" preserveAspectRatio="none" style="width:1207px;height:778px;background:#FFFFFF;" version="1.1" viewBox="0 0 1207 778" width="1207px" zoomAndPan="magnify"><title>Scribblydo Deployment Architecture</title><defs/><g><g class="title" data-source-line="8"><text fill="#000000" font-family="Arial" font-size="22" font-weight="bold" lengthAdjust="spacing" textLength="381.4121" x="408.2939" y="41.6357">Scribblydo Deployment Architecture</text></g><!--cluster browser--><g class="cluster" data-entity="browser" data-source-line="10" data-uid="ent0002" id="cluster_browser"><rect fill="#E8EAF6" height="315.19" rx="4" ry="4" style="stroke:#000000;stroke-width:1;" width="955" x="12" y="116.1879"/><text fill="#000000" font-family="Arial" font-size="11" font-weight="bold" lengthAdjust="spacing" textLength="44.0161" x="467.4919" y="134.5057">Browser</text></g><!--cluster sidebar--><g class="cluster" data-entity="sidebar" data-source-line="11" data-uid="ent0003" id="cluster_sidebar"><rect fill="#C5CAE9" height="208.19" rx="4" ry="4" style="stroke:#000000;stroke-width:1;" width="169" x="52" y="183.1879"/><text fill="#000000" font-family="Arial" font-size="11" font-weight="bold" lengthAdjust="spacing" textLength="63.5669" x="104.7166" y="201.5057">Left Sidebar</text></g><!--cluster whiteboard--><g class="cluster" data-entity="whiteboard" data-source-line="15" data-uid="ent0005" id="cluster_whiteboard"><rect fill="#C5CAE9" height="109.65" rx="4" ry="4" style="stroke:#000000;stroke-width:1;" width="445" x="261" y="232.4579"/><text fill="#000000" font-family="Arial" font-size="11" font-weight="bold" lengthAdjust="spacing" textLength="88.0107" x="439.4946" y="250.7757">Whiteboard Area</text></g><!--cluster right_sidebar--><g class="cluster" data-entity="right_sidebar" data-source-line="22" data-uid="ent0012" id="cluster_right_sidebar"><rect fill="#C5CAE9" height="208.19" rx="4" ry="4" style="stroke:#000000;stroke-width:1;" width="173" x="746" y="183.1879"/><text fill="#000000" font-family="Arial" font-size="11" font-weight="bold" lengthAdjust="spacing" textLength="71.5054" x="796.7473" y="201.5057">Right Sidebar</text></g><!--cluster k8s--><g class="cluster" data-entity="k8s" data-source-line="27" data-uid="ent0014" id="cluster_k8s"><rect fill="#E8F5E9" height="274.89" rx="4" ry="4" style="stroke:#000000;stroke-width:1;" width="379" x="822" y="497.3779"/><text fill="#000000" font-family="Arial" font-size="11" font-weight="bold" lengthAdjust="spacing" textLength="101.4707" x="960.7646" y="515.6957">Kubernetes Cluster</text></g><!--entity sidebar_content--><g class="entity" data-entity="sidebar_content" data-source-line="12" data-uid="ent0004" id="entity_sidebar_content"><text fill="#000000" font-family="Arial" font-size="11" lengthAdjust="spacing" textLength="61.7515" x="92" y="260.5057">Whiteboards</text><text fill="#000000" font-family="Arial" font-size="11" lengthAdjust="spacing" textLength="3.0562" x="92" y="273.1546">&#160;</text><text fill="#000000" font-family="Arial" font-size="11" lengthAdjust="spacing" textLength="45.2461" x="98.1123" y="285.8036">- Board 1</text><text fill="#000000" font-family="Arial" font-size="11" lengthAdjust="spacing" textLength="45.2461" x="98.1123" y="298.4525">- Board 2</text><text fill="#000000" font-family="Arial" font-size="11" lengthAdjust="spacing" textLength="63.8945" x="98.1123" y="311.1014">+ New Board</text><text fill="#000000" font-family="Arial" font-size="11" lengthAdjust="spacing" textLength="3.0562" x="92" y="323.7504">&#160;</text><text fill="#000000" font-family="Arial" font-size="11" lengthAdjust="spacing" textLength="57.7769" x="98.1123" y="336.3993">+ New Note</text><text fill="#000000" font-family="Arial" font-size="11" lengthAdjust="spacing" textLength="33.6445" x="98.1123" y="349.0482">Logout</text></g><!--entity note1--><g class="entity" data-entity="note1" data-source-line="16" data-uid="ent0006" id="entity_note1"><rect fill="#FFF9C4" height="30.6489" rx="4" ry="4" style="stroke:#000000;stroke-width:1;" width="55.2354" x="517.38" y="285.4579"/><text fill="#000000" font-family="Arial" font-size="11" lengthAdjust="spacing" textLength="23.2354" x="533.38" y="304.7757">Note</text></g><!--entity note2--><g class="entity" data-entity="note2" data-source-line="17" data-uid="ent0007" id="entity_note2"><rect fill="#FFCDD2" height="30.6489" rx="4" ry="4" style="stroke:#000000;stroke-width:1;" width="55.2354" x="607.38" y="285.4579"/><text fill="#000000" font-family="Arial" font-size="11" lengthAdjust="spacing" textLength="23.2354" x="623.38" y="304.7757">Note</text></g><!--entity note3--><g class="entity" data-entity="note3" data-source-line="18" data-uid="ent0008" id="entity_note3"><rect fill="#C8E6C9" height="30.6489" rx="4" ry="4" style="stroke:#000000;stroke-width:1;" width="55.2354" x="285.38" y="285.4579"/><text fill="#000000" font-family="Arial" font-size="11" lengthAdjust="spacing" textLength="23.2354" x="301.38" y="304.7757">Note</text></g><g class="entity" data-entity="GMN9" data-source-line="19" data-uid="ent0010" id="entity_GMN9"><path d="M375.83,287.4579 L375.83,296.7779 L341.09,300.7779 L375.83,304.7779 L375.83,314.1068 A4,4 0 0 0 379.83,318.1068 L478.1723,318.1068 A4,4 0 0 0 482.1723,314.1068 L482.1723,293.4579 L472.1723,283.4579 L379.83,283.4579 A4,4 0 0 0 375.83,287.4579" fill="#FFFFFF" style="stroke:#000000;stroke-width:1;"/><path d="M472.1723,283.4579 L472.1723,291.4579 A2,2 0 0 0 474.1723,293.4579 L482.1723,293.4579 L472.1723,283.4579" fill="#FFFFFF" style="stroke:#000000;stroke-width:1;"/><text fill="#000000" font-family="Arial" font-size="11" lengthAdjust="spacing" textLength="73.3423" x="387.83" y="304.7757">cursor (User 2)</text></g><!--entity right_content--><g class="entity" data-entity="right_content" data-source-line="23" data-uid="ent0013" id="entity_right_content"><text fill="#000000" font-family="Arial" font-size="11" lengthAdjust="spacing" textLength="63.5776" x="786.33" y="260.5057">Online Users</text><text fill="#000000" font-family="Arial" font-size="11" lengthAdjust="spacing" textLength="3.0562" x="786.33" y="273.1546">&#160;</text><text fill="#000000" font-family="Arial" font-size="11" lengthAdjust="spacing" textLength="67.2354" x="792.4423" y="285.8036">- User 1 (you)</text><text fill="#000000" font-family="Arial" font-size="11" lengthAdjust="spacing" textLength="39.1177" x="792.4423" y="298.4525">- User 2</text><text fill="#000000" font-family="Arial" font-size="11" lengthAdjust="spacing" textLength="3.0562" x="786.33" y="311.1014">&#160;</text><text fill="#000000" font-family="Arial" font-size="11" lengthAdjust="spacing" textLength="70.9307" x="786.33" y="323.7504">Viewing Board</text><text fill="#000000" font-family="Arial" font-size="11" lengthAdjust="spacing" textLength="3.0562" x="786.33" y="336.3993">&#160;</text><text fill="#000000" font-family="Arial" font-size="11" lengthAdjust="spacing" textLength="39.1177" x="792.4423" y="349.0482">- User 2</text></g><!--entity fe--><g class="entity" data-entity="fe" data-source-line="28" data-uid="ent0015" id="entity_fe"><rect fill="#A5D6A7" height="69.9468" rx="4" ry="4" style="stroke:#000000;stroke-width:1;" width="102.6084" x="837.7" y="540.3779"/><text fill="#000000" font-family="Arial" font-size="11" lengthAdjust="spacing" textLength="44.0269" x="853.7" y="566.6957">Frontend</text><text fill="#000000" font-family="Arial" font-size="11" lengthAdjust="spacing" textLength="70.6084" x="853.7" y="579.3446">(React+Nginx)</text><text fill="#000000" font-family="Arial" font-size="11" lengthAdjust="spacing" textLength="38.5215" x="853.7" y="591.9936">Port: 80</text></g><!--entity be--><g class="entity" data-entity="be" data-source-line="29" data-uid="ent0016" id="entity_be"><rect fill="#A5D6A7" height="69.9468" rx="4" ry="4" style="stroke:#000000;stroke-width:1;" width="82.7568" x="975.62" y="540.3779"/><text fill="#000000" font-family="Arial" font-size="11" lengthAdjust="spacing" textLength="42.8076" x="991.62" y="566.6957">Backend</text><text fill="#000000" font-family="Arial" font-size="11" lengthAdjust="spacing" textLength="46.4492" x="991.62" y="579.3446">(FastAPI)</text><text fill="#000000" font-family="Arial" font-size="11" lengthAdjust="spacing" textLength="50.7568" x="991.62" y="591.9936">Port: 8000</text></g><!--entity pg--><g class="entity" data-entity="pg" data-source-line="30" data-uid="ent0017" id="entity_pg"><path d="M1093.04,552.1979 C1093.04,542.1979 1139,542.1979 1139,542.1979 C1139,542.1979 1184.9599,542.1979 1184.9599,552.1979 L1184.9599,598.4957 C1184.9599,608.4957 1139,608.4957 1139,608.4957 C1139,608.4957 1093.04,608.4957 1093.04,598.4957 L1093.04,552.1979" fill="#A5D6A7" style="stroke:#000000;stroke-width:1;"/><path d="M1093.04,552.1979 C1093.04,562.1979 1139,562.1979 1139,562.1979 C1139,562.1979 1184.9599,562.1979 1184.9599,552.1979" fill="none" style="stroke:#000000;stroke-width:1;"/><text fill="#000000" font-family="Arial" font-size="11" lengthAdjust="spacing" textLength="59.9199" x="1109.04" y="582.5157">PostgreSQL</text><text fill="#000000" font-family="Arial" font-size="11" lengthAdjust="spacing" textLength="50.7568" x="1109.04" y="595.1646">Port: 5432</text></g><!--entity nats--><g class="entity" data-entity="nats" data-source-line="31" data-uid="ent0018" id="entity_nats"><path d="M975.74,696.3179 L1058.2615,696.3179 C1063.2615,696.3179 1063.2615,726.2912 1063.2615,726.2912 C1063.2615,726.2912 1063.2615,756.2646 1058.2615,756.2646 L975.74,756.2646 C970.74,756.2646 970.74,726.2912 970.74,726.2912 C970.74,726.2912 970.74,696.3179 975.74,696.3179" fill="#A5D6A7" style="stroke:#000000;stroke-width:1;"/><path d="M1058.2615,696.3179 C1053.2615,696.3179 1053.2615,726.2912 1053.2615,726.2912 C1053.2615,756.2646 1058.2615,756.2646 1058.2615,756.2646" fill="none" style="stroke:#000000;stroke-width:1;"/><text fill="#000000" font-family="Arial" font-size="11" lengthAdjust="spacing" textLength="29.3369" x="981.74" y="717.6357">NATS</text><text fill="#000000" font-family="Arial" font-size="11" lengthAdjust="spacing" textLength="60.5215" x="981.74" y="730.2846">(Messaging)</text><text fill="#000000" font-family="Arial" font-size="11" lengthAdjust="spacing" textLength="50.7568" x="981.74" y="742.9336">Port: 4222</text></g><!--link sidebar to whiteboard--><!--link whiteboard to right_sidebar--><!--link fe to be--><!--link fe to be--><g class="link" data-entity-1="fe" data-entity-2="be" data-source-line="44" data-uid="lnk25" id="link_fe_be"><path d="M940.75,550.0779 C952.27,548.2679 958.0093,547.3748 969.5293,550.6548" fill="none" id="fe-to-be" style="stroke:#000000;stroke-width:1;"/><polygon fill="#000000" points="975.3,552.2979,967.7394,545.9862,970.4911,550.9287,965.5487,553.6804,975.3,552.2979" style="stroke:#000000;stroke-width:1;"/></g><!--link be to pg--><!--link be to pg--><g class="link" data-entity-1="be" data-entity-2="pg" data-source-line="45" data-uid="lnk26" id="link_be_pg"><path d="M1058.46,551.8079 C1069.89,548.6579 1075.445,547.0597 1086.875,549.4297" fill="none" id="be-to-pg" style="stroke:#000000;stroke-width:1;"/><polygon fill="#000000" points="1092.75,550.6479,1084.7496,544.9039,1087.8541,549.6327,1083.1253,552.7373,1092.75,550.6479" style="stroke:#000000;stroke-width:1;"/></g><!--link browser to fe--><g class="link" data-entity-1="browser" data-entity-2="fe" data-source-line="42" data-uid="lnk23" id="link_browser_fe"><path d="M930.9944,431.5528 C930.9316,431.8077 930.8688,432.0625 930.806,432.3171 C930.5546,433.3356 930.3026,434.3519 930.0501,435.3655 C929.0403,439.4198 928.0225,443.4316 927,447.3779 C918.8,479.0079 909.8078,508.8835 901.8178,534.3235" fill="none" id="browser-to-fe" style="stroke:#000000;stroke-width:1;"/><polygon fill="#000000" points="900.02,540.0479,906.533,532.6599,901.5182,535.2776,898.9006,530.2628,900.02,540.0479" style="stroke:#000000;stroke-width:1;"/><text fill="#000000" font-family="Arial" font-size="11" lengthAdjust="spacing" textLength="28.7192" x="931.26" y="472.6957">HTTP</text></g><!--link browser to be--><g class="link" data-entity-1="browser" data-entity-2="be" data-source-line="43" data-uid="lnk24" id="link_browser_be"><path d="M967.0071,339.4205 C967.0695,339.7141 967.1323,340.009 967.1953,340.3052 C967.4474,341.49 967.7039,342.6955 967.9646,343.921 C969.0076,348.8227 970.1181,354.0422 971.2834,359.5186 C973.6139,370.4713 976.1631,382.4516 978.8275,394.9729 C989.485,445.0579 1000.736,497.9293 1008.451,534.1793" fill="none" id="browser-to-be" style="stroke:#000000;stroke-width:1;"/><polygon fill="#000000" points="1009.7,540.0479,1011.7389,530.4123,1008.6592,535.1574,1003.9141,532.0777,1009.7,540.0479" style="stroke:#000000;stroke-width:1;"/><text fill="#000000" font-family="Arial" font-size="11" lengthAdjust="spacing" textLength="56.2461" x="1003.58" y="472.6957">WebSocket</text></g><!--link be to nats--><g class="link" data-entity-1="be" data-entity-2="nats" data-source-line="46" data-uid="lnk27" id="link_be_nats"><path d="M1017,610.5179 C1017,636.4579 1017,665.7279 1017,690.2979" fill="none" id="be-to-nats" style="stroke:#000000;stroke-width:1;"/><polygon fill="#000000" points="1017,696.2979,1021,687.2979,1017,691.2979,1013,687.2979,1017,696.2979" style="stroke:#000000;stroke-width:1;"/><text fill="#000000" font-family="Arial" font-size="11" lengthAdjust="spacing" textLength="42.2007" x="1024" y="657.6357">Pub/Sub</text></g><!--SRC=[XLDHRzCm47xthpZI1pPD5MlMbcuFI5dQ2aGfPHdiWQ79JgwfjSmkjgCoqFuxjjDspe3Xf_FTzzrtlZk_C2kyGrXNb0kYRxbOKqNlWD7yjbIo5aKgAwcWC_KdG1Iuf7LbfbAOERKP4iLfzVTundyYz7f1S4sBWeiIXe5lgwO4AXWHOhYf4B9SSSQg-qB26DULlBz3OQnMlk86SrCh94HPWuhIegDp9JSQLGHK0sjiw4n6asGwX5y4x0d0CrmQo7Y1Z3OCtTZGIGTfCZdTCjofACCAeYkdoYHLXRuMrmAW2-Vk1htm4hlB4SnnqpWQQEEOIuFkDfEbh4seUfFRJjd7USq7yhJOHsdxUgIUkNdq_LboxjoHq_DOOOsU7-DfsdyE53jGEXx7pu5EhE1eCanFzo3d1SNBbG6vt6BE8A-LjjjpyDaD8ZxynzikF2sSX4zqyzzvV1GL5mWk-tuWNge71_UoFWmyiOj_uRXnQnUCPHSEPDk3U6WjsFkQeTrGWnhIgjPckskt8-tsR3hOLnbmfiedj8875qXpSpGlkVXXYrj8PSvWTEnJB14woM0yJ5u_vP_RlzZGfrIRPF4ke1utPDOc5zHGHhNbBgGsfSBiqsp76VHFciUkonRdUusr9SoJoymgVK2jgIspt6lruxZX2Mhqdccxyn9cr3RRaDsukbzNl2XGV5FTO4L9iAqXeZLgGcmRmYX3mjgUTUaaKoc4xH2NGfFTH-yMtJUkZMSGlRsyN4Jj0FE1AsIPjEqqaLTIFk0bd6bpEzF1_IijOL6pLrdD8l8R]--></g></svg>